<?xml version="1.0" encoding="utf-8"?>
<!-- Generator: Adobe Illustrator 24.0.1, SVG Export Plug-In . SVG Version: 6.00 Build 0)  -->
<svg version="1.1" id="Layer_1" xmlns="http://www.w3.org/2000/svg" xmlns:xlink="http://www.w3.org/1999/xlink" x="0px" y="0px"
	 viewBox="0 0 157 95" style="enable-background:new 0 0 157 95;" xml:space="preserve">
<style type="text/css">
	.st0{fill:#005286;}
	.st1{display:none;}
	.st2{display:inline;fill:#FFFFFF;}
	.st3{fill:#FFFFFF;}
</style>
<g>
	<rect y="0.9" class="st0" width="157" height="93.2"/>
	<g class="st1">
		<path class="st2" d="M133.4,70.7l-23.5-29.7L122.6,26c2-2.5,3.7-3.6,3.7-3.6h-5.6c-0.4,1.4-1.5,2.8-2.1,3.6
			c-3.9,5.3-10,13.5-10,13.5s-6.5-8.2-10.5-13.6c-0.5-0.7-1.4-1.7-1.9-3.6h-6.1c0,0,2.2,1.2,4.8,5c0,0,11.4,14.5,11.5,14.7
			L93.5,57.4c-2,2.5-3.7,3.6-3.7,3.6h5.6c0.4-1.5,2.1-3.6,2.1-3.6l10.2-13.8c0,0,22.4,28.6,22.7,29c0.2,0.4,0.4,0.6,0.6,0.9h5
			C135.9,73.6,135.5,73.5,133.4,70.7L133.4,70.7z"/>
		<path class="st2" d="M93.5,41.7c0-10.9-8.5-19.6-19-19.6l0,0c-10.5,0-18.9,8.8-19,19.6l0,0c0,10.9,8.5,19.6,19,19.6l0,0
			C85,61.4,93.5,52.6,93.5,41.7L93.5,41.7L93.5,41.7L93.5,41.7L93.5,41.7z M90.1,41.8L90.1,41.8c0,3.1-0.8,6.8-2.3,9.5
			c-1.7,3.1-4.3,5.5-7.4,6.9c-1.8,0.8-3.9,1.2-5.8,1.2l0,0c-1.8,0-3.9-0.4-5.8-1.2c-3.1-1.4-5.7-3.8-7.4-6.9
			c-1.5-2.7-2.4-6.4-2.4-9.5v0l0,0v0c0-3.1,0.8-6.8,2.4-9.5c1.7-3.1,4.3-5.5,7.4-6.9c1.8-0.8,3.9-1.2,5.8-1.2l0,0
			c1.8,0,3.9,0.4,5.8,1.2c3.1,1.4,5.7,3.8,7.4,6.9C89.3,34.9,90.1,38.6,90.1,41.8C90.1,41.7,90.1,41.7,90.1,41.8L90.1,41.8
			L90.1,41.8z"/>
		<path class="st2" d="M40.3,22.1C29.9,22.2,21.5,31,21.4,41.8c0,10.8,8.5,19.6,18.9,19.6c0,0,5.8,0.3,12.7-3v-5.1
			c-4.9,6-12,6.2-12.6,6.2c-1.8,0-3.9-0.4-5.8-1.2c-3.1-1.4-5.7-3.8-7.4-6.9c-1.5-2.7-2.3-6.4-2.3-9.5c0-3.1,0.8-6.8,2.3-9.6
			c1.7-3.1,4.3-5.5,7.4-6.9c1.8-0.8,3.9-1.2,5.8-1.2c0.6,0,7.7,0.2,12.6,6.1v-5C46.4,21.8,40.3,22.1,40.3,22.1L40.3,22.1z"/>
	</g>
</g>
<g>
	<path class="st3" d="M133,70.6l-23.3-29.4l12.5-15c2-2.5,3.7-3.6,3.7-3.6l-5.5,0c-0.4,1.4-1.5,2.8-2.1,3.6
		c-3.9,5.2-9.9,13.4-9.9,13.4S102,31.5,98,26.2c-0.5-0.7-1.4-1.8-1.9-3.5H90c0,0,2.2,1.3,4.8,4.9c0,0,11.3,14.4,11.4,14.6L93.4,57.4
		c-2,2.5-3.7,3.6-3.7,3.6l5.5,0c0.4-1.5,2.1-3.6,2.1-3.6l10.1-13.7c0,0,22.2,28.3,22.5,28.7c0.3,0.4,0.4,0.6,0.6,1h4.9
		C135.5,73.4,135,73.3,133,70.6L133,70.6z"/>
	<path class="st3" d="M93.5,41.8C93.4,31.1,85,22.4,74.6,22.4v0c-10.4,0-18.8,8.7-18.8,19.5h0c0.1,10.8,8.5,19.4,18.8,19.5v0
		C85,61.3,93.4,52.6,93.5,41.8L93.5,41.8L93.5,41.8L93.5,41.8L93.5,41.8z M90.1,41.8L90.1,41.8c0,3.1-0.8,6.7-2.3,9.4
		c-1.7,3.1-4.3,5.5-7.4,6.9c-1.8,0.8-3.9,1.2-5.8,1.2v0c-1.8,0-3.9-0.4-5.7-1.2c-3.1-1.4-5.6-3.8-7.4-6.9c-1.5-2.7-2.3-6.4-2.3-9.4
		c0,0,0,0,0,0h0c0,0,0,0,0,0c0-3,0.8-6.7,2.3-9.4c1.7-3.1,4.3-5.5,7.4-6.9c1.8-0.8,3.9-1.2,5.7-1.2v0c1.8,0,3.9,0.4,5.8,1.2
		c3.1,1.4,5.6,3.8,7.4,6.9C89.3,35.1,90.1,38.8,90.1,41.8C90.1,41.8,90.1,41.8,90.1,41.8L90.1,41.8L90.1,41.8z"/>
	<path class="st3" d="M40.7,22.4C30.4,22.5,22.1,31.2,22,41.9c0.1,10.7,8.4,19.4,18.7,19.4c0,0,5.7,0.3,12.6-3l0-5.1
		c-4.9,5.9-11.9,6.1-12.5,6.1c-1.8,0-3.9-0.4-5.7-1.2c-3.1-1.4-5.6-3.8-7.4-6.9c-1.5-2.7-2.3-6.4-2.3-9.4c0-3.1,0.8-6.8,2.3-9.5
		c1.7-3.1,4.3-5.5,7.4-6.8c1.8-0.8,3.9-1.2,5.7-1.2c0.7,0,7.7,0.2,12.5,6.1l0-5C46.7,22.1,40.7,22.4,40.7,22.4L40.7,22.4z"/>
	<polygon class="st3" points="54.4,67.4 50.4,67.4 50.4,69.3 54,69.3 54,70.4 50.4,70.4 50.4,72.3 54.5,72.3 54.5,73.4 49.2,73.4 
		49.2,66.3 54.4,66.3 54.4,67.4 	"/>
	<polygon class="st3" points="60.9,66.3 62.2,66.3 62.2,73.4 61.1,73.4 57.2,68.4 57.2,73.4 56,73.4 56,66.3 57.1,66.3 60.9,71.2 
		60.9,66.3 	"/>
	<polygon class="st3" points="67,73.4 65.7,73.4 65.7,67.5 63.5,67.5 63.5,66.3 69.3,66.3 69.3,67.5 67,67.5 67,73.4 	"/>
	<polygon class="st3" points="75.8,67.4 71.8,67.4 71.8,69.3 75.4,69.3 75.4,70.4 71.8,70.4 71.8,72.3 75.9,72.3 75.9,73.4 
		70.6,73.4 70.6,66.3 75.8,66.3 75.8,67.4 	"/>
	<path class="st3" d="M81.9,73.4l-1.7-2.5h-1.6v2.5h-1.2v-7.1h3.2c1.6,0,2.6,0.9,2.6,2.3c0,1.2-0.7,1.9-1.7,2.2l1.9,2.7H81.9
		L81.9,73.4z M80.4,67.4h-1.8v2.4h1.8c0.9,0,1.5-0.5,1.5-1.2C81.9,67.8,81.4,67.4,80.4,67.4L80.4,67.4z"/>
	<path class="st3" d="M87.4,71.1H86v2.3h-1.2v-7.1h2.8c1.7,0,2.7,0.9,2.7,2.4C90.2,70.3,88.9,71.1,87.4,71.1L87.4,71.1z M87.4,67.4
		H86V70h1.5c0.9,0,1.5-0.5,1.5-1.3C88.9,67.9,88.3,67.4,87.4,67.4L87.4,67.4z"/>
	<path class="st3" d="M96,73.4l-1.7-2.5h-1.6v2.5h-1.2v-7.1h3.2c1.6,0,2.6,0.9,2.6,2.3c0,1.2-0.7,1.9-1.7,2.2l1.9,2.7H96L96,73.4z
		 M94.6,67.4h-1.8v2.4h1.8c0.9,0,1.5-0.5,1.5-1.2C96,67.8,95.5,67.4,94.6,67.4L94.6,67.4z"/>
	<polygon class="st3" points="100.1,66.3 100.1,73.4 98.9,73.4 98.9,66.3 100.1,66.3 	"/>
	<path class="st3" d="M104.8,69.3c1.5,0.4,2.3,0.9,2.3,2.1c0,1.3-1,2.1-2.5,2.1c-1.1,0-2.1-0.4-3-1.1l0.8-0.9
		c0.7,0.6,1.4,0.9,2.2,0.9c0.8,0,1.3-0.4,1.3-0.9c0-0.5-0.3-0.8-1.6-1.1c-1.5-0.4-2.4-0.8-2.4-2.1c0-1.2,1-2.1,2.4-2.1
		c1,0,1.9,0.3,2.6,0.9l-0.7,0.9c-0.6-0.5-1.3-0.7-1.9-0.7c-0.7,0-1.2,0.4-1.2,0.9C103.1,68.7,103.4,69,104.8,69.3L104.8,69.3z"/>
	<polygon class="st3" points="113.8,67.4 109.8,67.4 109.8,69.3 113.3,69.3 113.3,70.4 109.8,70.4 109.8,72.3 113.9,72.3 
		113.9,73.4 108.5,73.4 108.5,66.3 113.8,66.3 113.8,67.4 	"/>
	<path class="st3" d="M118.1,69.3c1.5,0.4,2.3,0.9,2.3,2.1c0,1.3-1,2.1-2.5,2.1c-1.1,0-2.1-0.4-3-1.1l0.8-0.9
		c0.7,0.6,1.4,0.9,2.2,0.9c0.8,0,1.3-0.4,1.3-0.9c0-0.5-0.3-0.8-1.6-1.1c-1.5-0.4-2.4-0.8-2.4-2.1c0-1.2,1-2.1,2.4-2.1
		c1,0,1.9,0.3,2.6,0.9l-0.7,0.9c-0.6-0.5-1.3-0.7-1.9-0.7c-0.7,0-1.2,0.4-1.2,0.9C116.4,68.7,116.7,69,118.1,69.3L118.1,69.3z"/>
</g>
</svg>
